<?xml version="1.0" standalone="no"?>
<!DOCTYPE svg PUBLIC "-//W3C//DTD SVG 20010904//EN"
 "http://www.w3.org/TR/2001/REC-SVG-20010904/DTD/svg10.dtd">
<svg version="1.0" xmlns="http://www.w3.org/2000/svg"
 width="450.000000pt" height="360.000000pt" viewBox="0 0 450.000000 360.000000"
 preserveAspectRatio="xMidYMid meet">

<g transform="translate(0.000000,360.000000) scale(0.100000,-0.100000)"
fill="#000000" stroke="none">
<path d="M2170 2731 c-25 -10 -178 -67 -340 -126 -237 -88 -301 -116 -327
-141 -50 -49 -46 -86 33 -300 37 -98 68 -181 70 -183 5 -5 104 20 104 27 0 3
-21 59 -46 125 -46 116 -47 119 -28 137 20 19 604 240 636 240 9 0 22 -9 28
-19 10 -19 250 -668 250 -677 0 -2 -27 -4 -60 -4 -50 0 -63 4 -84 25 -37 37
-52 34 -89 -17 -11 -15 -28 -14 -225 17 -201 30 -215 34 -252 64 -36 29 -42
30 -98 25 -73 -8 -77 -11 -85 -51 -6 -32 -4 -34 46 -59 47 -24 57 -26 101 -17
41 8 83 4 265 -26 l216 -37 3 -27 c2 -16 14 -34 28 -43 22 -15 26 -15 50 0 20
14 56 18 172 21 269 7 438 56 549 158 101 93 116 209 40 323 -77 116 -296 224
-487 239 l-65 5 70 -20 c170 -50 325 -150 381 -247 34 -57 37 -131 7 -171 -31
-42 -97 -88 -159 -111 -73 -28 -191 -48 -203 -36 -5 6 -75 192 -156 415 -81
223 -153 419 -162 437 -15 33 -82 74 -119 72 -10 0 -39 -8 -64 -18z m-123
-187 c9 -24 -5 -32 -130 -79 -96 -35 -119 -41 -133 -31 -31 23 -9 41 102 83
120 45 152 51 161 27z"/>
<path d="M1344 2221 c-78 -36 -136 -89 -164 -148 -33 -70 -26 -176 17 -264 78
-159 294 -305 540 -366 l73 -18 76 -205 c103 -277 110 -293 143 -313 55 -32
54 -33 649 190 190 71 200 92 131 290 -22 65 -45 133 -51 151 l-9 33 -57 -7
c-31 -3 -58 -7 -59 -8 -1 -1 9 -33 23 -70 14 -38 23 -73 22 -78 -2 -6 -96 -44
-208 -85 -113 -41 -258 -94 -323 -118 -117 -43 -118 -43 -126 -21 -5 11 -25
63 -45 113 -20 51 -36 96 -36 101 0 5 26 9 59 10 51 1 60 -2 70 -21 43 -80
207 -103 266 -37 18 20 17 20 -46 20 l-64 0 -28 45 c-15 25 -27 47 -27 49 0 2
20 19 45 39 40 30 51 34 85 30 53 -7 54 17 3 52 -54 36 -115 34 -175 -5 -26
-17 -49 -38 -52 -47 -12 -30 -204 -3 -361 50 -319 109 -536 351 -459 513 19
40 91 111 136 136 52 27 19 20 -48 -11z m1146 -1001 c26 -26 26 -74 0 -98 -11
-10 -45 -27 -75 -37 -62 -22 -97 -13 -116 29 -20 44 -4 75 54 101 65 30 111
31 137 5z"/>
</g>
</svg>
